<?xml version="1.0" encoding="utf-8"?>
<!-- Generator: Adobe Illustrator 23.0.1, SVG Export Plug-In . SVG Version: 6.00 Build 0)  -->
<svg version="1.1" id="Layer_1" xmlns="http://www.w3.org/2000/svg" xmlns:xlink="http://www.w3.org/1999/xlink" x="0px" y="0px"
	 viewBox="0 0 858.6 1002" style="enable-background:new 0 0 858.6 1002;" xml:space="preserve">
<style type="text/css">
	.st0{opacity:0.1;fill:#92C72B;enable-background:new    ;}
	.st1{fill:#FF6584;}
</style>
<title>beach</title>
<path class="st0" d="M389,934.5c-65.3-39.2-153.7-33-223.2-16.9c-23.3,5.4-47.8,11.6-74,6.5c-32-6.3-57.3-28.1-71.9-50.1
	c-26.6-40.1-26.4-85.5,0.5-118.2c23.3-28.3,64.2-46.7,86.2-75.6c36.7-48.4,13.3-115.6-22.3-174.1c-25.2-41.4-57-87-39.8-124.8
	c12.2-26.6,47.2-42.9,85.4-50.2c18.5-3.5,38.6-5.6,52.6-14c8.3-5,13.8-12,18.3-19.3c41.1-66.2,5-156.8,51.8-220.5
	c31.5-43.1,97.4-67,168.1-74.3s146.5,0.2,221.1,9.4c53.1,6.5,109.9,15.2,153.3,42.3c45.9,28.7,66.8,73.5,63,112.1
	s-29,71.9-59.9,100.5c-38.6,35.7-88.1,67.8-100.1,114.5c-8.2,31.8,2.1,66.7,8.1,100.7c10,56.7,8,112.5,5.1,167.9
	c-2.8,53-6.4,106.4-25.3,155.6c-13.4,34.8-41.8,61.4-60.1,93.8c-11.9,21.2-13.2,45.1-29.2,64.8c-19.7,24.2-56.4,44.9-103.1,34.6
	C449.3,989.5,423.7,955.3,389,934.5z"/>
<circle class="st1" cx="250.6" cy="89.1" r="87.3"/>
</svg>
