<svg xmlns="http://www.w3.org/2000/svg" id="f38ee091-c82c-4da1-851f-4c077abd9110" data-name="Layer 1" width="1068" height="831.71426" viewBox="0 0 1068 831.71426" style="&#10;    width: 600px;&#10;"><title>online wishes</title><path d="M904.08458,343.52969C859.16819,166.90825,703.96793,39.41226,521.7964,34.29851,425.48777,31.595,324.14421,63.5363,250.35863,175.31049c-131.89969,199.80845,8.10555,337.88223,105.7135,403.49213a610.75776,610.75776,0,0,1,126.24112,113.4651c65.931,78.23772,192.76719,175.45908,343.82337,23.12816C935.62233,604.98624,934.00333,461.177,904.08458,343.52969Z" transform="translate(-66 -34.14287)" fill="#f2f2f2" class="" style="&#10;"/><path d="M1134,382.85713c0,45.83964-37.16037,119-83,119s-83-73.16036-83-119a83,83,0,1,1,166,0Z" transform="translate(-66 -34.14287)" fill="#92c72b"/><path d="M1054.074,504.80854c-10.43048,3.59136-12.92756,17.81494-9.33986,28.24668s11.18624,19.08463,15.00958,29.43232a88.19944,88.19944,0,0,1,3.74052,16.04114c2.18414,12.981,4.37428,26.19026,2.69137,39.24565-1.59646,12.38466-6.614,24.06061-12.21177,35.22275a329.51138,329.51138,0,0,1-39.3229,60.69117" transform="translate(-66 -34.14287)" fill="none" stroke="#2f2e41" stroke-width="2"/><path d="M1059,509.85713q-8-5.13386-16,0v-16h16Z" transform="translate(-66 -34.14287)" fill="#92c72b"/><path d="M1043.04193,501.51827a17.60008,17.60008,0,0,0,16.02856-.06574" transform="translate(-66 -34.14287)" fill="none" stroke="#2f2e41" stroke-width="2"/><ellipse cx="1019.5" cy="313.71426" rx="17.5" ry="21" fill="#fff" opacity="0.4"/><path d="M66,369.85713c0,45.83964,37.16037,119,83,119s83-73.16036,83-119a83,83,0,0,0-166,0Z" transform="translate(-66 -34.14287)" fill="#92c72b"/><path d="M145.926,491.80854c10.43048,3.59136,12.92756,17.81494,9.33986,28.24668s-11.18624,19.08463-15.00958,29.43232a88.19944,88.19944,0,0,0-3.74052,16.04114c-2.18414,12.981-4.37428,26.19026-2.69137,39.24565,1.59646,12.38466,6.614,24.06061,12.21177,35.22275a329.51138,329.51138,0,0,0,39.3229,60.69117" transform="translate(-66 -34.14287)" fill="none" stroke="#2f2e41" stroke-width="2"/><path d="M141,496.85713q8-5.13386,16,0v-16H141Z" transform="translate(-66 -34.14287)" fill="#92c72b"/><path d="M156.95807,488.51827a17.60008,17.60008,0,0,1-16.02856-.06574" transform="translate(-66 -34.14287)" fill="none" stroke="#2f2e41" stroke-width="2"/><ellipse cx="48.5" cy="300.71426" rx="17.5" ry="21" fill="#fff" opacity="0.4"/><circle cx="508.0483" cy="133.67929" r="3.86334" fill="#f2f2f2"/><circle cx="508.0483" cy="544.73817" r="14.68067" fill="#f2f2f2"/><path d="M937.074,338.80854c-10.43048,3.59136-12.92756,17.81494-9.33986,28.24668s11.18624,19.08463,15.00958,29.43232a88.19944,88.19944,0,0,1,3.74052,16.04114c2.18414,12.981,4.37428,26.19026,2.69137,39.24565-1.59646,12.38466-6.614,24.06061-12.21177,35.22275a329.51138,329.51138,0,0,1-39.3229,60.69117" transform="translate(-66 -34.14287)" fill="none" stroke="#2f2e41" stroke-width="2"/><path d="M1017,216.85713c0,45.83964-37.16037,119-83,119s-83-73.16036-83-119a83,83,0,0,1,166,0Z" transform="translate(-66 -34.14287)" fill="#674cb5"/><path d="M942,343.85713q-8-5.13386-16,0v-16h16Z" transform="translate(-66 -34.14287)" fill="#674cb5"/><path d="M926.04193,335.51827a17.60008,17.60008,0,0,0,16.02856-.06574" transform="translate(-66 -34.14287)" fill="none" stroke="#2f2e41" stroke-width="2"/><ellipse cx="902.5" cy="147.71426" rx="17.5" ry="21" fill="#fff" opacity="0.4"/><polygon points="603.607 288.552 603.607 375.098 580.728 421.257 580.728 421.262 580.003 422.719 519.433 418.719 496.149 417.179 442.109 413.609 442.109 310.085 496.149 311.609 520.315 312.292 581.453 314.019 603.607 288.552" fill="#674cb5"/><polygon points="603.607 293.658 603.607 375.098 598.017 386.374 598.017 386.378 592.285 397.936 592.285 397.94 580.728 421.257 582.02 334.711 582.281 317.253 593.271 305.095 593.271 305.091 598.062 299.791 603.607 293.658" opacity="0.1"/><polygon points="606.713 265.57 606.713 295.799 603.607 300.747 598.058 309.588 593.143 317.419 582.281 334.724 582.02 334.711 437.347 327.27 437.347 297.455 437.712 297.062 454.984 278.365 461.236 271.599 472.545 259.358 606.713 265.57" fill="#674cb5"/><polygon points="582.281 304.909 582.281 334.724 437.347 327.27 437.347 297.455 437.712 297.062 582.281 304.909" opacity="0.1"/><polygon points="606.713 265.57 606.713 295.799 582.281 334.724 582.281 304.909 606.713 265.57" opacity="0.15"/><polygon points="598.075 279.479 598.062 299.791 598.058 309.588 598.017 386.374 598.017 386.378 592.285 397.936 593.143 317.419 593.271 305.095 593.271 305.091 593.466 286.9 454.984 278.365 461.236 271.599 598.075 279.479" fill="#2f2e41"/><polygon points="530.105 280.477 520.402 301.55 520.315 312.292 519.433 418.719 496.149 417.179 496.149 300.147 508.572 280.477 530.105 280.477" fill="#2f2e41"/><path d="M564.15,316.03808a30.76616,30.76616,0,0,1-17.35419.60923,6.97459,6.97459,0,0,1-3.04413-1.41166,7.88417,7.88417,0,0,1-1.88293-3.73055,29.47759,29.47759,0,0,1-1.66243-8.92937c.06958-3.0398,1.23264-6.21226,3.71261-7.9715a8.77491,8.77491,0,0,0,1.41038-1.05926,5.84862,5.84862,0,0,0,1.09121-2.21685c1.6965-5.06057,4.98527-10.40433,10.26081-11.2144,4.86734-.74739,9.29708,2.65193,13.04732,5.84338l8.23089,7.0045a12.98674,12.98674,0,0,1,24.21555-.32985,46.0605,46.0605,0,0,1,18.31061-12.56387c1.55934-.58109,3.39076-1.0542,4.81217-.1889a5.52129,5.52129,0,0,1,1.91528,2.56858,39.55934,39.55934,0,0,1,3.56809,15.6055,2.731,2.731,0,0,1,3.17368,1.09482,7.20175,7.20175,0,0,1,1.05633,3.44006,48.686,48.686,0,0,1,.32819,5.6676c-.001,1.99729-.18614,4.15469-1.48788,5.6695-1.68208,1.95739-4.58626,2.16439-7.16637,2.22578,1.24241,1.10268.6358,3.3234-.73838,4.25674s-3.15162.9505-4.81271.93433c-6.40383-.06234-13.21581-.24439-18.54265-3.79933-2.10327-1.40364-3.86487-3.27295-5.97365-4.66844-5.16859-3.42027-11.65786-3.58374-17.64064-3.30072C573.57747,309.82884,569.29137,314.31626,564.15,316.03808Z" transform="translate(-66 -34.14287)" fill="#2f2e41"/><path d="M562.977,314.61991s-53.41847,7.45374-60.87221,39.75328l11.18061-1.65639,7.86784,14.07929s8.28193-31.47135,32.71364-38.92509,33.12773-8.696,33.12773-8.696,16.978,4.141,32.29954,53.41847l8.696-12.0088,15.32158,3.31277s-11.18061-38.511-41.40967-49.2775Z" transform="translate(-66 -34.14287)" fill="#2f2e41"/></svg>