<svg height="512pt" viewBox="0 -1 512 512" width="512pt" xmlns="http://www.w3.org/2000/svg"><path d="m346.8125 465h-181.625l30-90h121.625zm0 0" fill="#cdd7d7"/><path d="m316.8125 375h-60.8125v90h90.8125zm0 0" fill="#abb1b1"/><path d="m376 510h-240c-8.285156 0-15-6.714844-15-15 0-24.8125 20.1875-45 45-45h180c24.8125 0 45 20.1875 45 45 0 8.285156-6.714844 15-15 15zm0 0" fill="#e6f0f0"/><path d="m346 450h-90v60h120c8.285156 0 15-6.714844 15-15 0-24.8125-20.1875-45-45-45zm0 0" fill="#cdd7d7"/><path d="m457 0h-402c-30.328125 0-55 24.671875-55 55v280c0 30.328125 24.671875 55 55 55h402c30.328125 0 55-24.671875 55-55v-280c0-30.328125-24.671875-55-55-55zm0 0" fill="#e6f0f0"/><path d="m457 0h-201v390h201c30.328125 0 55-24.671875 55-55v-280c0-30.328125-24.671875-55-55-55zm0 0" fill="#cdd7d7"/><path d="m55 30h402c13.785156 0 25 11.214844 25 25v245h-452v-245c0-13.785156 11.214844-25 25-25zm0 0" fill="#78e0ea"/><path d="m457 30h-201v270h226v-245c0-13.785156-11.214844-25-25-25zm0 0" fill="#3cccdd"/><path d="m336 240c-3.839844 0-7.679688-1.464844-10.605469-4.394531-5.859375-5.855469-5.859375-15.355469 0-21.210938l49.390625-49.394531-49.390625-49.394531c-5.859375-5.855469-5.859375-15.355469 0-21.210938 5.855469-5.859375 15.351563-5.859375 21.210938 0l60 60c5.859375 5.855469 5.859375 15.351563 0 21.210938l-60 60c-2.925781 2.929687-6.765625 4.394531-10.605469 4.394531zm0 0" fill="#46465a"/><path d="m176 240c-3.839844 0-7.679688-1.464844-10.605469-4.394531l-60-60c-5.859375-5.855469-5.859375-15.355469 0-21.210938l60-60c5.855469-5.859375 15.355469-5.859375 21.210938 0 5.859375 5.855469 5.859375 15.351563 0 21.210938l-49.390625 49.394531 49.390625 49.394531c5.859375 5.855469 5.859375 15.355469 0 21.210938-2.925781 2.929687-6.765625 4.394531-10.605469 4.394531zm0 0" fill="#5a5a6e"/><path d="m227.007812 267.007812c-1.574218 0-3.171874-.25-4.746093-.773437-7.859375-2.621094-12.105469-11.117187-9.488281-18.972656l60-180c2.621093-7.859375 11.117187-12.105469 18.972656-9.488281 7.859375 2.621093 12.109375 11.113281 9.488281 18.972656l-60 180c-2.09375 6.285156-7.949219 10.261718-14.226563 10.261718zm0 0" fill="#5a5a6e"/><path d="m291.746094 57.773438c-7.855469-2.617188-16.351563 1.628906-18.972656 9.488281l-16.773438 50.320312v94.867188l45.234375-135.703125c2.621094-7.859375-1.628906-16.351563-9.488281-18.972656zm0 0" fill="#46465a"/></svg>