<?xml version="1.0"?>
<svg xmlns="http://www.w3.org/2000/svg" xmlns:xlink="http://www.w3.org/1999/xlink" version="1.1" viewBox="0 0 192 192" width="50px" height="50px"><g transform=""><g fill="none" fill-rule="nonzero" stroke="none" stroke-width="1" stroke-linecap="butt" stroke-linejoin="miter" stroke-miterlimit="10" stroke-dasharray="" stroke-dashoffset="0" font-family="none" font-weight="none" font-size="none" text-anchor="none" style="mix-blend-mode: normal"><path d="M0,192v-192h192v192z" fill="none"/><path d="M50.88,192c-28.10025,0 -50.88,-22.77975 -50.88,-50.88v-90.24c0,-28.10025 22.77975,-50.88 50.88,-50.88h90.24c28.10025,0 50.88,22.77975 50.88,50.88v90.24c0,28.10025 -22.77975,50.88 -50.88,50.88zM133.44,184.32c28.10025,0 50.88,-22.77975 50.88,-50.88v-74.88c0,-28.10025 -22.77975,-50.88 -50.88,-50.88h-74.88c-28.10025,0 -50.88,22.77975 -50.88,50.88v74.88c0,28.10025 22.77975,50.88 50.88,50.88z" fill="#000000"/><g fill="#000000"><path d="M111.79201,25.344c-10.04621,0 -18.72453,3.0626 -24.816,9.114c-6.09147,6.0514 -9.408,14.92079 -9.408,25.806v14.232h-18.432c-1.69655,0.00017 -3.07183,1.37545 -3.072,3.072v24.576c0.00017,1.69655 1.37545,3.07183 3.072,3.072h18.432v58.368c0.00017,1.69655 1.37545,3.07183 3.072,3.072h24.576c1.69655,-0.00017 3.07183,-1.37545 3.072,-3.072v-58.368h21.504c1.54813,-0.00009 2.85435,-1.15203 3.048,-2.688l3.072,-24.576c0.11011,-0.87475 -0.16089,-1.75464 -0.74406,-2.41587c-0.58317,-0.66123 -1.4223,-1.04006 -2.30395,-1.04013h-24.576v-12.288c0,-3.4304 2.7136,-6.144 6.144,-6.144h18.432c1.69655,-0.00017 3.07183,-1.37545 3.072,-3.072v-23.514c-0.00193,-1.53982 -1.14344,-2.84037 -2.67,-3.042c-2.71465,-0.36018 -12.51436,-1.092 -21.474,-1.092zM111.79201,31.488c7.48908,0 14.72864,0.59918 18,0.906v17.526h-15.36c-6.75021,0 -12.288,5.53779 -12.288,12.288v15.36c0.00017,1.69655 1.37545,3.07183 3.072,3.072h24.168l-2.304,18.432h-21.864c-1.69655,0.00017 -3.07183,1.37545 -3.072,3.072v58.368h-18.432v-58.368c-0.00017,-1.69655 -1.37545,-3.07183 -3.072,-3.072h-18.432v-18.432h18.432c1.69655,-0.00017 3.07183,-1.37545 3.072,-3.072v-17.304c0,-9.66033 2.82718,-16.71254 7.596,-21.45c4.76882,-4.73746 11.66506,-7.326 20.484,-7.326z"/></g><path d="" fill="none"/><path d="M0,192v-192h192v192z" fill="none"/><path d="M7.68,184.32v-176.64h176.64v176.64z" fill="none"/><path d="M0,192v-192h192v192z" fill="none"/><path d="M15.36,176.64v-161.28h161.28v161.28z" fill="none"/><path d="M0,192v-192h192v192z" fill="none"/><path d="M19.2,172.8v-153.6h153.6v153.6z" fill="none"/><path d="M0,192v-192h192v192z" fill="none"/><path d="M23.04,168.96v-145.92h145.92v145.92z" fill="none"/><path d="M0,192v-192h192v192z" fill="none"/><path d="M26.88,165.12v-138.24h138.24v138.24z" fill="none"/><path d="M0,192v-192h192v192z" fill="none"/><path d="M30.72,161.28v-130.56h130.56v130.56z" fill="none"/><path d="M0,192v-192h192v192z" fill="none"/><path d="M34.56,157.44v-122.88h122.88v122.88z" fill="none"/><path d="M0,192v-192h192v192z" fill="none"/><path d="M30.72,161.28v-130.56h130.56v130.56z" fill="none"/><path d="M0,192v-192h192v192z" fill="none"/><path d="M26.88,165.12v-138.24h138.24v138.24z" fill="none"/><path d="M0,192v-192h192v192z" fill="none"/><path d="M23.04,168.96v-145.92h145.92v145.92z" fill="none"/><path d="M0,192v-192h192v192z" fill="none"/><path d="M19.2,172.8v-153.6h153.6v153.6z" fill="none"/><path d="M0,192v-192h192v192z" fill="none"/><path d="M15.36,176.64v-161.28h161.28v161.28z" fill="none"/><path d="M0,192v-192h192v192z" fill="none"/><path d="M11.52,180.48v-168.96h168.96v168.96z" fill="none"/><path d="M0,192v-192h192v192z" fill="none"/><path d="M7.68,184.32v-176.64h176.64v176.64z" fill="none"/><path d="M0,192v-192h192v192z" fill="none"/><path d="M3.84,188.16v-184.32h184.32v184.32z" fill="none"/><path d="M0,192v-192h192v192z" fill="none"/><path d="M7.68,184.32v-176.64h176.64v176.64z" fill="none"/><path d="M0,192v-192h192v192z" fill="none"/><path d="M11.52,180.48v-168.96h168.96v168.96z" fill="none"/><path d="M0,192v-192h192v192z" fill="none"/><path d="M3.84,188.16v-184.32h184.32v184.32z" fill="none"/><path d="M3.84,188.16v-184.32h184.32v184.32z" fill="none"/><path d="M7.68,184.32v-176.64h176.64v176.64z" fill="none"/><path d="M7.68,184.32v-176.64h176.64v176.64z" fill="none"/><path d="M11.52,180.48v-168.96h168.96v168.96z" fill="none"/><path d="M14.4,177.6v-163.2h163.2v163.2z" fill="none"/><path d="M18.24,173.76v-155.52h155.52v155.52z" fill="none"/><path d="M20.16,171.84v-151.68h151.68v151.68z" fill="none"/><path d="M24,168v-144h144v144z" fill="none"/><path d="M22.08,169.92v-147.84h147.84v147.84z" fill="none"/><path d="M25.92,166.08v-140.16h140.16v140.16z" fill="none"/><path d="M23.04,168.96v-145.92h145.92v145.92z" fill="none"/><path d="M26.88,165.12v-138.24h138.24v138.24z" fill="none"/><path d="M24.96,167.04v-142.08h142.08v142.08z" fill="none"/><path d="M28.8,163.2v-134.4h134.4v134.4z" fill="none"/><path d="M24,168v-144h144v144z" fill="none"/><path d="M27.84,164.16v-136.32h136.32v136.32z" fill="none"/><path d="M20.16,171.84v-151.68h151.68v151.68z" fill="none"/><path d="M24,168v-144h144v144z" fill="none"/><path d="M14.4,177.6v-163.2h163.2v163.2z" fill="none"/><path d="M18.24,173.76v-155.52h155.52v155.52z" fill="none"/><path d="M9.6,182.4v-172.8h172.8v172.8z" fill="none"/><path d="M13.44,178.56v-165.12h165.12v165.12z" fill="none"/><path d="M7.68,184.32v-176.64h176.64v176.64z" fill="none"/><path d="M11.52,180.48v-168.96h168.96v168.96z" fill="none"/><path d="M0,192v-192h192v192z" fill="none"/><path d="M3.84,188.16v-184.32h184.32v184.32z" fill="none"/><path d="M1.92,192c-1.06039,0 -1.92,-0.85961 -1.92,-1.92v-188.16c0,-1.06039 0.85961,-1.92 1.92,-1.92h188.16c1.06039,0 1.92,0.85961 1.92,1.92v188.16c0,1.06039 -0.85961,1.92 -1.92,1.92z" fill="none"/><path d="M5.76,188.16c-1.06039,0 -1.92,-0.85961 -1.92,-1.92v-180.48c0,-1.06039 0.85961,-1.92 1.92,-1.92h180.48c1.06039,0 1.92,0.85961 1.92,1.92v180.48c0,1.06039 -0.85961,1.92 -1.92,1.92z" fill="none"/><path d="M7.68,192c-4.24155,0 -7.68,-3.43845 -7.68,-7.68v-176.64c0,-4.24155 3.43845,-7.68 7.68,-7.68h176.64c4.24155,0 7.68,3.43845 7.68,7.68v176.64c0,4.24155 -3.43845,7.68 -7.68,7.68z" fill="none"/><path d="M11.52,188.16c-4.24155,0 -7.68,-3.43845 -7.68,-7.68v-168.96c0,-4.24155 3.43845,-7.68 7.68,-7.68h168.96c4.24155,0 7.68,3.43845 7.68,7.68v168.96c0,4.24155 -3.43845,7.68 -7.68,7.68z" fill="none"/><path d="M9.6,192c-5.30193,0 -9.6,-4.29807 -9.6,-9.6v-172.8c0,-5.30193 4.29807,-9.6 9.6,-9.6h172.8c5.30193,0 9.6,4.29807 9.6,9.6v172.8c0,5.30193 -4.29807,9.6 -9.6,9.6z" fill="none"/><path d="M13.44,188.16c-5.30193,0 -9.6,-4.29807 -9.6,-9.6v-165.12c0,-5.30193 4.29807,-9.6 9.6,-9.6h165.12c5.30193,0 9.6,4.29807 9.6,9.6v165.12c0,5.30193 -4.29807,9.6 -9.6,9.6z" fill="none"/><path d="M17.28,192c-9.54348,0 -17.28,-7.73652 -17.28,-17.28v-157.44c0,-9.54348 7.73652,-17.28 17.28,-17.28h157.44c9.54348,0 17.28,7.73652 17.28,17.28v157.44c0,9.54348 -7.73652,17.28 -17.28,17.28z" fill="none"/><path d="M21.12,188.16c-9.54348,0 -17.28,-7.73652 -17.28,-17.28v-149.76c0,-9.54348 7.73652,-17.28 17.28,-17.28h149.76c9.54348,0 17.28,7.73652 17.28,17.28v149.76c0,9.54348 -7.73652,17.28 -17.28,17.28z" fill="none"/><path d="M20.16,192c-11.13406,0 -20.16,-9.02594 -20.16,-20.16v-151.68c0,-11.13406 9.02594,-20.16 20.16,-20.16h151.68c11.13406,0 20.16,9.02594 20.16,20.16v151.68c0,11.13406 -9.02594,20.16 -20.16,20.16z" fill="none"/><path d="M24,188.16c-11.13406,0 -20.16,-9.02594 -20.16,-20.16v-144c0,-11.13406 9.02594,-20.16 20.16,-20.16h144c11.13406,0 20.16,9.02594 20.16,20.16v144c0,11.13406 -9.02594,20.16 -20.16,20.16z" fill="none"/><path d="M32.64,192c-18.02657,0 -32.64,-14.61343 -32.64,-32.64v-126.72c0,-18.02657 14.61343,-32.64 32.64,-32.64h126.72c18.02657,0 32.64,14.61343 32.64,32.64v126.72c0,18.02657 -14.61343,32.64 -32.64,32.64z" fill="none"/><path d="M36.48,188.16c-18.02657,0 -32.64,-14.61343 -32.64,-32.64v-119.04c0,-18.02657 14.61343,-32.64 32.64,-32.64h119.04c18.02657,0 32.64,14.61343 32.64,32.64v119.04c0,18.02657 -14.61343,32.64 -32.64,32.64z" fill="none"/><path d="M34.56,192c-19.08696,0 -34.56,-15.47304 -34.56,-34.56v-122.88c0,-19.08696 15.47304,-34.56 34.56,-34.56h122.88c19.08696,0 34.56,15.47304 34.56,34.56v122.88c0,19.08696 -15.47304,34.56 -34.56,34.56z" fill="none"/><path d="M38.4,188.16c-19.08696,0 -34.56,-15.47304 -34.56,-34.56v-115.2c0,-19.08696 15.47304,-34.56 34.56,-34.56h115.2c19.08696,0 34.56,15.47304 34.56,34.56v115.2c0,19.08696 -15.47304,34.56 -34.56,34.56z" fill="none"/><path d="M35.52,192c-19.61715,0 -35.52,-15.90285 -35.52,-35.52v-120.96c0,-19.61715 15.90285,-35.52 35.52,-35.52h120.96c19.61715,0 35.52,15.90285 35.52,35.52v120.96c0,19.61715 -15.90285,35.52 -35.52,35.52z" fill="none"/><path d="M39.36,188.16c-19.61715,0 -35.52,-15.90285 -35.52,-35.52v-113.28c0,-19.61715 15.90285,-35.52 35.52,-35.52h113.28c19.61715,0 35.52,15.90285 35.52,35.52v113.28c0,19.61715 -15.90285,35.52 -35.52,35.52z" fill="none"/><path d="M40.32,192c-22.26812,0 -40.32,-18.05188 -40.32,-40.32v-111.36c0,-22.26812 18.05188,-40.32 40.32,-40.32h111.36c22.26812,0 40.32,18.05188 40.32,40.32v111.36c0,22.26812 -18.05188,40.32 -40.32,40.32z" fill="none"/><path d="M44.16,188.16c-22.26812,0 -40.32,-18.05188 -40.32,-40.32v-103.68c0,-22.26812 18.05188,-40.32 40.32,-40.32h103.68c22.26812,0 40.32,18.05188 40.32,40.32v103.68c0,22.26812 -18.05188,40.32 -40.32,40.32z" fill="none"/><path d="M43.2,192c-23.8587,0 -43.2,-19.3413 -43.2,-43.2v-105.6c0,-23.8587 19.3413,-43.2 43.2,-43.2h105.6c23.8587,0 43.2,19.3413 43.2,43.2v105.6c0,23.8587 -19.3413,43.2 -43.2,43.2z" fill="none"/><path d="M47.04,188.16c-23.8587,0 -43.2,-19.3413 -43.2,-43.2v-97.92c0,-23.8587 19.3413,-43.2 43.2,-43.2h97.92c23.8587,0 43.2,19.3413 43.2,43.2v97.92c0,23.8587 -19.3413,43.2 -43.2,43.2z" fill="none"/><path d="M47.04,192c-25.97947,0 -47.04,-21.06053 -47.04,-47.04v-97.92c0,-25.97947 21.06053,-47.04 47.04,-47.04h97.92c25.97947,0 47.04,21.06053 47.04,47.04v97.92c0,25.97947 -21.06053,47.04 -47.04,47.04z" fill="none"/><path d="M50.88,188.16c-25.97947,0 -47.04,-21.06053 -47.04,-47.04v-90.24c0,-25.97947 21.06053,-47.04 47.04,-47.04h90.24c25.97947,0 47.04,21.06053 47.04,47.04v90.24c0,25.97947 -21.06053,47.04 -47.04,47.04z" fill="none"/><path d="M50.88,192c-28.10025,0 -50.88,-22.77975 -50.88,-50.88v-90.24c0,-28.10025 22.77975,-50.88 50.88,-50.88h90.24c28.10025,0 50.88,22.77975 50.88,50.88v90.24c0,28.10025 -22.77975,50.88 -50.88,50.88z" fill="none"/><path d="M54.72,188.16c-28.10025,0 -50.88,-22.77975 -50.88,-50.88v-82.56c0,-28.10025 22.77975,-50.88 50.88,-50.88h82.56c28.10025,0 50.88,22.77975 50.88,50.88v82.56c0,28.10025 -22.77975,50.88 -50.88,50.88z" fill="none"/><path d="M51.84,192c-28.63044,0 -51.84,-23.20956 -51.84,-51.84v-88.32c0,-28.63044 23.20956,-51.84 51.84,-51.84h88.32c28.63044,0 51.84,23.20956 51.84,51.84v88.32c0,28.63044 -23.20956,51.84 -51.84,51.84z" fill="none"/><path d="M55.68,188.16c-28.63044,0 -51.84,-23.20956 -51.84,-51.84v-80.64c0,-28.63044 23.20956,-51.84 51.84,-51.84h80.64c28.63044,0 51.84,23.20956 51.84,51.84v80.64c0,28.63044 -23.20956,51.84 -51.84,51.84z" fill="none"/><path d="M52.8,192c-29.16063,0 -52.8,-23.63937 -52.8,-52.8v-86.4c0,-29.16063 23.63937,-52.8 52.8,-52.8h86.4c29.16063,0 52.8,23.63937 52.8,52.8v86.4c0,29.16063 -23.63937,52.8 -52.8,52.8z" fill="none"/><path d="M56.64,188.16c-29.16063,0 -52.8,-23.63937 -52.8,-52.8v-78.72c0,-29.16063 23.63937,-52.8 52.8,-52.8h78.72c29.16063,0 52.8,23.63937 52.8,52.8v78.72c0,29.16063 -23.63937,52.8 -52.8,52.8z" fill="none"/><path d="M55.68,192c-30.75121,0 -55.68,-24.92879 -55.68,-55.68v-80.64c0,-30.75121 24.92879,-55.68 55.68,-55.68h80.64c30.75121,0 55.68,24.92879 55.68,55.68v80.64c0,30.75121 -24.92879,55.68 -55.68,55.68z" fill="none"/><path d="M59.52,188.16c-30.75121,0 -55.68,-24.92879 -55.68,-55.68v-72.96c0,-30.75121 24.92879,-55.68 55.68,-55.68h72.96c30.75121,0 55.68,24.92879 55.68,55.68v72.96c0,30.75121 -24.92879,55.68 -55.68,55.68z" fill="none"/><path d="M56.64,192c-31.28141,0 -56.64,-25.35859 -56.64,-56.64v-78.72c0,-31.28141 25.35859,-56.64 56.64,-56.64h78.72c31.28141,0 56.64,25.35859 56.64,56.64v78.72c0,31.28141 -25.35859,56.64 -56.64,56.64z" fill="none"/><path d="M60.48,188.16c-31.28141,0 -56.64,-25.35859 -56.64,-56.64v-71.04c0,-31.28141 25.35859,-56.64 56.64,-56.64h71.04c31.28141,0 56.64,25.35859 56.64,56.64v71.04c0,31.28141 -25.35859,56.64 -56.64,56.64z" fill="none"/><path d="M54.72,192c-30.22102,0 -54.72,-24.49898 -54.72,-54.72v-82.56c0,-30.22102 24.49898,-54.72 54.72,-54.72h82.56c30.22102,0 54.72,24.49898 54.72,54.72v82.56c0,30.22102 -24.49898,54.72 -54.72,54.72z" fill="none"/><path d="M58.56,188.16c-30.22102,0 -54.72,-24.49898 -54.72,-54.72v-74.88c0,-30.22102 24.49898,-54.72 54.72,-54.72h74.88c30.22102,0 54.72,24.49898 54.72,54.72v74.88c0,30.22102 -24.49898,54.72 -54.72,54.72z" fill="none"/><path d="M46.08,192c-25.44928,0 -46.08,-20.63072 -46.08,-46.08v-99.84c0,-25.44928 20.63072,-46.08 46.08,-46.08h99.84c25.44928,0 46.08,20.63072 46.08,46.08v99.84c0,25.44928 -20.63072,46.08 -46.08,46.08z" fill="none"/><path d="M49.92,188.16c-25.44928,0 -46.08,-20.63072 -46.08,-46.08v-92.16c0,-25.44928 20.63072,-46.08 46.08,-46.08h92.16c25.44928,0 46.08,20.63072 46.08,46.08v92.16c0,25.44928 -20.63072,46.08 -46.08,46.08z" fill="none"/><path d="M42.24,192c-23.32851,0 -42.24,-18.91149 -42.24,-42.24v-107.52c0,-23.32851 18.91149,-42.24 42.24,-42.24h107.52c23.32851,0 42.24,18.91149 42.24,42.24v107.52c0,23.32851 -18.91149,42.24 -42.24,42.24z" fill="none"/><path d="M46.08,188.16c-23.32851,0 -42.24,-18.91149 -42.24,-42.24v-99.84c0,-23.32851 18.91149,-42.24 42.24,-42.24h99.84c23.32851,0 42.24,18.91149 42.24,42.24v99.84c0,23.32851 -18.91149,42.24 -42.24,42.24z" fill="none"/><path d="M38.4,192c-21.20773,0 -38.4,-17.19227 -38.4,-38.4v-115.2c0,-21.20773 17.19227,-38.4 38.4,-38.4h115.2c21.20773,0 38.4,17.19227 38.4,38.4v115.2c0,21.20773 -17.19227,38.4 -38.4,38.4z" fill="none"/><path d="M42.24,188.16c-21.20773,0 -38.4,-17.19227 -38.4,-38.4v-107.52c0,-21.20773 17.19227,-38.4 38.4,-38.4h107.52c21.20773,0 38.4,17.19227 38.4,38.4v107.52c0,21.20773 -17.19227,38.4 -38.4,38.4z" fill="none"/><path d="M36.48,192c-20.14735,0 -36.48,-16.33265 -36.48,-36.48v-119.04c0,-20.14735 16.33265,-36.48 36.48,-36.48h119.04c20.14735,0 36.48,16.33265 36.48,36.48v119.04c0,20.14735 -16.33265,36.48 -36.48,36.48z" fill="none"/><path d="M40.32,188.16c-20.14735,0 -36.48,-16.33265 -36.48,-36.48v-111.36c0,-20.14735 16.33265,-36.48 36.48,-36.48h111.36c20.14735,0 36.48,16.33265 36.48,36.48v111.36c0,20.14735 -16.33265,36.48 -36.48,36.48z" fill="none"/><path d="M36.48,192c-20.14735,0 -36.48,-16.33265 -36.48,-36.48v-119.04c0,-20.14735 16.33265,-36.48 36.48,-36.48h119.04c20.14735,0 36.48,16.33265 36.48,36.48v119.04c0,20.14735 -16.33265,36.48 -36.48,36.48z" fill="none"/><path d="M44.16,184.32c-20.14735,0 -36.48,-16.33265 -36.48,-36.48v-103.68c0,-20.14735 16.33265,-36.48 36.48,-36.48h103.68c20.14735,0 36.48,16.33265 36.48,36.48v103.68c0,20.14735 -16.33265,36.48 -36.48,36.48z" fill="none"/><path d="M40.32,192c-22.26812,0 -40.32,-18.05188 -40.32,-40.32v-111.36c0,-22.26812 18.05188,-40.32 40.32,-40.32h111.36c22.26812,0 40.32,18.05188 40.32,40.32v111.36c0,22.26812 -18.05188,40.32 -40.32,40.32z" fill="none"/><path d="M48,184.32c-22.26812,0 -40.32,-18.05188 -40.32,-40.32v-96c0,-22.26812 18.05188,-40.32 40.32,-40.32h96c22.26812,0 40.32,18.05188 40.32,40.32v96c0,22.26812 -18.05188,40.32 -40.32,40.32z" fill="none"/><path d="M50.88,192c-28.10025,0 -50.88,-22.77975 -50.88,-50.88v-90.24c0,-28.10025 22.77975,-50.88 50.88,-50.88h90.24c28.10025,0 50.88,22.77975 50.88,50.88v90.24c0,28.10025 -22.77975,50.88 -50.88,50.88z" fill="none"/><path d="M58.56,184.32c-28.10025,0 -50.88,-22.77975 -50.88,-50.88v-74.88c0,-28.10025 22.77975,-50.88 50.88,-50.88h74.88c28.10025,0 50.88,22.77975 50.88,50.88v74.88c0,28.10025 -22.77975,50.88 -50.88,50.88z" fill="none"/></g></g></svg>
