<?xml version="1.0"?>
<svg xmlns="http://www.w3.org/2000/svg" xmlns:xlink="http://www.w3.org/1999/xlink" version="1.1" viewBox="0 0 192 192" width="50px" height="50px"><g fill="none" fill-rule="nonzero" stroke="none" stroke-width="1" stroke-linecap="butt" stroke-linejoin="miter" stroke-miterlimit="10" stroke-dasharray="" stroke-dashoffset="0" font-family="none" font-weight="none" font-size="none" text-anchor="none" style="mix-blend-mode: normal"><path d="M0,192v-192h192v192z" fill="none"/><path d="M58.56,192c-32.34179,0 -58.56,-26.21821 -58.56,-58.56v-74.88c0,-32.34179 26.21821,-58.56 58.56,-58.56h74.88c32.34179,0 58.56,26.21821 58.56,58.56v74.88c0,32.34179 -26.21821,58.56 -58.56,58.56zM125.76,184.32c32.34179,0 58.56,-26.21821 58.56,-58.56v-59.52c0,-32.34179 -26.21821,-58.56 -58.56,-58.56h-59.52c-32.34179,0 -58.56,26.21821 -58.56,58.56v59.52c0,32.34179 26.21821,58.56 58.56,58.56z" fill="#c02bb0"/><g fill="#c02bb0"><path d="M111.79201,25.344c-10.04621,0 -18.72453,3.0626 -24.816,9.114c-6.09147,6.0514 -9.408,14.92079 -9.408,25.806v14.232h-18.432c-1.69655,0.00017 -3.07183,1.37545 -3.072,3.072v24.576c0.00017,1.69655 1.37545,3.07183 3.072,3.072h18.432v58.368c0.00017,1.69655 1.37545,3.07183 3.072,3.072h24.576c1.69655,-0.00017 3.07183,-1.37545 3.072,-3.072v-58.368h21.504c1.54813,-0.00009 2.85435,-1.15203 3.048,-2.688l3.072,-24.576c0.11011,-0.87475 -0.16089,-1.75464 -0.74406,-2.41587c-0.58317,-0.66123 -1.4223,-1.04006 -2.30395,-1.04013h-24.576v-12.288c0,-3.4304 2.7136,-6.144 6.144,-6.144h18.432c1.69655,-0.00017 3.07183,-1.37545 3.072,-3.072v-23.514c-0.00193,-1.53982 -1.14344,-2.84037 -2.67,-3.042c-2.71465,-0.36018 -12.51436,-1.092 -21.474,-1.092zM111.79201,31.488c7.48908,0 14.72864,0.59918 18,0.906v17.526h-15.36c-6.75021,0 -12.288,5.53779 -12.288,12.288v15.36c0.00017,1.69655 1.37545,3.07183 3.072,3.072h24.168l-2.304,18.432h-21.864c-1.69655,0.00017 -3.07183,1.37545 -3.072,3.072v58.368h-18.432v-58.368c-0.00017,-1.69655 -1.37545,-3.07183 -3.072,-3.072h-18.432v-18.432h18.432c1.69655,-0.00017 3.07183,-1.37545 3.072,-3.072v-17.304c0,-9.66033 2.82718,-16.71254 7.596,-21.45c4.76882,-4.73746 11.66506,-7.326 20.484,-7.326z"/></g><path d="M58.56,192c-32.34179,0 -58.56,-26.21821 -58.56,-58.56v-74.88c0,-32.34179 26.21821,-58.56 58.56,-58.56h74.88c32.34179,0 58.56,26.21821 58.56,58.56v74.88c0,32.34179 -26.21821,58.56 -58.56,58.56z" fill="none"/><path d="M66.24,184.32c-32.34179,0 -58.56,-26.21821 -58.56,-58.56v-59.52c0,-32.34179 26.21821,-58.56 58.56,-58.56h59.52c32.34179,0 58.56,26.21821 58.56,58.56v59.52c0,32.34179 -26.21821,58.56 -58.56,58.56z" fill="none"/><path d="M58.56,192c-32.34179,0 -58.56,-26.21821 -58.56,-58.56v-74.88c0,-32.34179 26.21821,-58.56 58.56,-58.56h74.88c32.34179,0 58.56,26.21821 58.56,58.56v74.88c0,32.34179 -26.21821,58.56 -58.56,58.56z" fill="none"/><path d="M66.24,184.32c-32.34179,0 -58.56,-26.21821 -58.56,-58.56v-59.52c0,-32.34179 26.21821,-58.56 58.56,-58.56h59.52c32.34179,0 58.56,26.21821 58.56,58.56v59.52c0,32.34179 -26.21821,58.56 -58.56,58.56z" fill="none"/></g></svg>
