<svg height="480pt" viewBox="0 0 480 480.00012" width="480pt" xmlns="http://www.w3.org/2000/svg"><path d="m358.761719 384h-237.523438c-10.832031 0-20.929687-5.480469-26.832031-14.5625-5.902344-9.085938-6.808594-20.539062-2.40625-30.4375l12-27v-144c0-53.019531 42.980469-96 96-96h80c53.019531 0 96 42.980469 96 96v144l12 27c4.402344 9.898438 3.496094 21.351562-2.40625 30.4375-5.902344 9.082031-16 14.5625-26.832031 14.5625zm0 0" fill="#ffb531"/><path d="m388 339-12-27v-144c.007812-21.289062-7.101562-41.972656-20.191406-58.761719-52.007813 148.503907-165.183594 233.160157-238.90625 274.472657 1.4375.191406 2.886718.289062 4.335937.289062h237.523438c10.832031 0 20.929687-5.480469 26.832031-14.5625 5.902344-9.085938 6.808594-20.539062 2.40625-30.4375zm0 0" fill="#ffa912"/><path d="m172 119.511719-8-13.847657c5.640625-3.261718 11.699219-5.746093 18.007812-7.382812l4 15.488281c-4.910156 1.265625-9.621093 3.195313-14.007812 5.742188zm0 0" fill="#ffcb73"/><path d="m144 200h-16v-32c-.054688-19.472656 7.84375-38.121094 21.863281-51.632812l11.144531 11.472656c-10.90625 10.511718-17.046874 25.015625-17.007812 40.160156zm0 0" fill="#ffcb73"/><path d="m280 72h-80l-32-64h144zm0 0" fill="#ffb531"/><path d="m256 200h-32c-8.835938 0-16-7.164062-16-16s7.164062-16 16-16h56v-16h-32v-16h-16v16h-8c-17.671875 0-32 14.328125-32 32s14.328125 32 32 32h32c8.835938 0 16 7.164062 16 16s-7.164062 16-16 16h-56v16h32v16h16v-16h8c17.671875 0 32-14.328125 32-32s-14.328125-32-32-32zm0 0" fill="#f58f00"/><path d="m404.960938 325.640625c-41.234376-32.074219-98.3125-34.339844-141.960938-5.640625h-63c-17.671875 0-32 14.328125-32 32s14.328125 32 32 32h-16l-124.609375-62.398438c-11.835937-5.929687-26.007813-4.652343-36.597656 3.292969l-.402344.296875c-9.0625 6.773438-14.398437 17.429688-14.390625 28.746094v.839844c.007812 13.089844 7.160156 25.128906 18.65625 31.390625l135.863281 74.113281c14.097657 7.6875 29.902344 11.71875 45.960938 11.71875h199.519531v-144zm0 0" fill="#fec9a3"/><path d="m408 328h64v144h-64zm0 0" fill="#348fd9"/><path d="m408 424h64v48h-64zm0 0" fill="#3086cd"/><path d="m432 424h16v16h-16zm0 0" fill="#1a5485"/><path d="m296 392h-96c-4.417969 0-8-3.582031-8-8s3.582031-8 8-8h96c4.417969 0 8 3.582031 8 8s-3.582031 8-8 8zm0 0" fill="#feb784"/><path d="m384 280v-112c.113281-52.625-39.207031-96.988281-91.464844-103.199219l26.664063-53.226562c1.242187-2.484375 1.105469-5.4375-.363281-7.800781-1.46875-2.359376-4.054688-3.789063-6.835938-3.773438h-144c-2.773438 0-5.347656 1.433594-6.808594 3.792969-1.457031 2.355469-1.589844 5.300781-.351562 7.78125l26.632812 53.226562c-52.171875 6.375-91.40625 50.640625-91.472656 103.199219v144h16v-144c.058594-48.578125 39.421875-87.941406 88-88h80c23.347656-.035156 45.753906 9.226562 62.261719 25.738281 16.511719 16.507813 25.773437 38.914063 25.738281 62.261719v112zm-108.945312-216h-70.109376l-24-48h118.109376zm0 0"/><path d="m172 119.511719c4.378906-2.542969 9.085938-4.476563 13.992188-5.742188l-4-15.488281c-6.308594 1.636719-12.367188 4.121094-18.007813 7.382812zm0 0"/><path d="m128 200h16v-32c-.039062-15.144531 6.101562-29.648438 17.007812-40.160156l-11.144531-11.472656c-14.019531 13.511718-21.917969 32.160156-21.863281 51.632812zm0 0"/><path d="m22.816406 393.183594 135.816406 74.074218c15.285157 8.355469 32.425782 12.738282 49.847657 12.742188h263.519531c4.417969 0 8-3.582031 8-8v-144c0-4.417969-3.582031-8-8-8h-61.222656l-.914063-.710938c-9.394531-7.335937-19.78125-13.304687-30.847656-17.738281-38.816406-15.839843-82.894531-11.945312-118.335937 10.449219h-60.679688c-12.738281-.003906-24.71875 6.0625-32.257812 16.332031-7.535157 10.269531-9.730469 23.515625-5.910157 35.667969l-98.894531-49.550781c-14.6875-7.375-32.300781-5.691407-45.320312 4.335937-11.070313 8.292969-17.5937505 21.304688-17.617188 35.136719v.878906c-.0195312 16.011719 8.738281 30.75 22.816406 38.382813zm393.183594-57.183594h48v128h-48zm-400 17.921875c.058594-8.957031 4.359375-17.359375 11.59375-22.640625 8.144531-6.144531 19.074219-7.125 28.183594-2.527344l124.648437 62.398438c1.105469.558594 2.332031.847656 3.574219.847656h120v-16h-104c-13.253906 0-24-10.746094-24-24s10.746094-24 24-24h63.039062c1.566407-.003906 3.097657-.460938 4.410157-1.320312 31.34375-20.640626 70.855469-24.492188 105.597656-10.289063 9.667969 3.875 18.742187 9.089844 26.953125 15.488281v132.121094h-191.519531c-14.742188-.003906-29.242188-3.714844-42.175781-10.785156l-135.855469-74.085938c-8.921875-4.839844-14.46875-14.179687-14.449219-24.328125zm0 0"/><path d="m432 424h16v16h-16zm0 0"/><path d="m248 280v-16h8c17.671875 0 32-14.328125 32-32s-14.328125-32-32-32h-32c-8.835938 0-16-7.164062-16-16s7.164062-16 16-16h56v-16h-32v-16h-16v16h-8c-17.671875 0-32 14.328125-32 32s14.328125 32 32 32h32c8.835938 0 16 7.164062 16 16s-7.164062 16-16 16h-56v16h32v16zm0 0"/></svg>