<svg xmlns="http://www.w3.org/2000/svg" x="0px" y="0px" width="100" height="100" viewBox="0 0 192 192" style=" fill:#000000;">
  <g fill="none" fill-rule="nonzero" stroke="none" stroke-width="1" stroke-linecap="butt" stroke-linejoin="miter" stroke-miterlimit="10" stroke-dasharray="" stroke-dashoffset="0" font-family="none" font-weight="none" font-size="none" text-anchor="none"
    style="mix-blend-mode: normal">
    <path d="M0,192v-192h192v192z" fill="none"></path>
    <g id="Layer_1">
      <g fill="#ecf0f1">
        <path d="M167.4528,108.8832c2.1792,-4.1376 3.4272,-8.8416 3.4272,-13.8432c0,-12.71232 -7.98528,-23.53344 -19.20192,-27.79776c0,-0.01344 0.00192,-0.02688 0.00192,-0.04224c0,-22.26816 -18.05184,-40.32 -40.32,-40.32c-18.78528,0 -34.52352,12.86592 -39.00096,30.25344c-2.83392,-0.9312 -5.85408,-1.45344 -8.99904,-1.45344c-14.76864,0 -26.92416,11.12256 -28.5888,25.44384c-9.99168,2.11392 -17.4912,10.97664 -17.4912,21.59616c0,12.19392 9.88608,22.08 22.08,22.08c0.33984,0 0.67584,-0.02304 1.00992,-0.04224c-0.00768,0.336 -0.04992,0.66432 -0.04992,1.00224c0,21.73824 17.62176,39.36 39.36,39.36c12.35904,0 23.376,-5.70624 30.59328,-14.61888c4.18176,4.272 9.99552,6.93888 16.44672,6.93888c8.928,0 16.65408,-5.088 20.47872,-12.51456c2.01984,0.6432 4.16832,0.99456 6.40128,0.99456c11.664,0 21.12,-9.456 21.12,-21.12c0,-6.35712 -2.8224,-12.04416 -7.2672,-15.9168z"></path>
      </g>
      <g fill="#ffffff">
        <g>
          <path d="M58.3776,142.08h-19.0176c-0.52992,0 -0.96,-0.43008 -0.96,-0.96c0,-0.52992 0.43008,-0.96 0.96,-0.96h19.0176c0.52992,0 0.96,0.43008 0.96,0.96c0,0.52992 -0.42816,0.96 -0.96,0.96z"></path>
        </g>
        <g>
          <path d="M64.32,142.08h-1.92c-0.52992,0 -0.96,-0.43008 -0.96,-0.96c0,-0.52992 0.43008,-0.96 0.96,-0.96h1.92c0.52992,0 0.96,0.43008 0.96,0.96c0,0.52992 -0.42816,0.96 -0.96,0.96z"></path>
        </g>
        <g>
          <path d="M73.90272,145.92h-17.26272c-0.52992,0 -0.96,-0.43008 -0.96,-0.96c0,-0.52992 0.43008,-0.96 0.96,-0.96h17.26272c0.52992,0 0.96,0.43008 0.96,0.96c0,0.52992 -0.43008,0.96 -0.96,0.96z"></path>
        </g>
        <g>
          <path d="M52.8,145.92h-1.92c-0.52992,0 -0.96,-0.43008 -0.96,-0.96c0,-0.52992 0.43008,-0.96 0.96,-0.96h1.92c0.52992,0 0.96,0.43008 0.96,0.96c0,0.52992 -0.42816,0.96 -0.96,0.96z"></path>
        </g>
        <g>
          <path d="M47.04,145.92h-3.84c-0.52992,0 -0.96,-0.43008 -0.96,-0.96c0,-0.52992 0.43008,-0.96 0.96,-0.96h3.84c0.52992,0 0.96,0.43008 0.96,0.96c0,0.52992 -0.42816,0.96 -0.96,0.96z"></path>
        </g>
        <g>
          <path d="M58.56,149.76h-3.84c-0.52992,0 -0.96,-0.43008 -0.96,-0.96c0,-0.52992 0.43008,-0.96 0.96,-0.96h3.84c0.52992,0 0.96,0.43008 0.96,0.96c0,0.52992 -0.43008,0.96 -0.96,0.96z"></path>
        </g>
        <g>
          <path d="M64.32,132.48c-0.33984,0 -1.58016,0 -1.92,0c-0.52992,0 -0.96,0.43008 -0.96,0.96c0,0.52992 0.43008,0.96 0.96,0.96c0.33984,0 1.58016,0 1.92,0c0.52992,0 0.96,-0.43008 0.96,-0.96c0,-0.52992 -0.43008,-0.96 -0.96,-0.96z"></path>
        </g>
        <g>
          <path d="M64.32,136.32c-0.33984,0 -9.26016,0 -9.6,0c-0.52992,0 -0.96,0.43008 -0.96,0.96c0,0.52992 0.43008,0.96 0.96,0.96c0.33984,0 9.26016,0 9.6,0c0.52992,0 0.96,-0.43008 0.96,-0.96c0,-0.52992 -0.43008,-0.96 -0.96,-0.96z"></path>
        </g>
        <g>
          <path d="M73.92,140.16c-0.33984,0 -5.42016,0 -5.76,0c-0.52992,0 -0.96,0.43008 -0.96,0.96c0,0.52992 0.43008,0.96 0.96,0.96c0.33984,0 5.42016,0 5.76,0c0.52992,0 0.96,-0.43008 0.96,-0.96c0,-0.52992 -0.43008,-0.96 -0.96,-0.96z"></path>
        </g>
      </g>
      <g fill="#ffffff">
        <g>
          <path d="M139.2,53.76h-19.2c-0.52992,0 -0.96,-0.43008 -0.96,-0.96c0,-0.52992 0.43008,-0.96 0.96,-0.96h19.2c0.52992,0 0.96,0.43008 0.96,0.96c0,0.52992 -0.43008,0.96 -0.96,0.96z"></path>
        </g>
        <g>
          <path d="M146.88,53.76h-3.84c-0.52992,0 -0.96,-0.43008 -0.96,-0.96c0,-0.52992 0.43008,-0.96 0.96,-0.96h3.84c0.52992,0 0.96,0.43008 0.96,0.96c0,0.52992 -0.43008,0.96 -0.96,0.96z"></path>
        </g>
        <g>
          <path d="M156.48,57.6h-19.2c-0.52992,0 -0.96,-0.43008 -0.96,-0.96c0,-0.52992 0.43008,-0.96 0.96,-0.96h19.2c0.52992,0 0.96,0.43008 0.96,0.96c0,0.52992 -0.42816,0.96 -0.96,0.96z"></path>
        </g>
        <g>
          <path d="M133.44,57.6h-1.92c-0.52992,0 -0.96,-0.43008 -0.96,-0.96c0,-0.52992 0.43008,-0.96 0.96,-0.96h1.92c0.52992,0 0.96,0.43008 0.96,0.96c0,0.52992 -0.43008,0.96 -0.96,0.96z"></path>
        </g>
        <g>
          <path d="M127.44,57.6h-3.6c-0.52992,0 -0.96,-0.43008 -0.96,-0.96c0,-0.52992 0.43008,-0.96 0.96,-0.96h3.6c0.52992,0 0.96,0.43008 0.96,0.96c0,0.52992 -0.43008,0.96 -0.96,0.96z"></path>
        </g>
        <g>
          <path d="M144.96,49.92h-9.6c-0.52992,0 -0.96,-0.43008 -0.96,-0.96c0,-0.52992 0.43008,-0.96 0.96,-0.96h9.6c0.52992,0 0.96,0.43008 0.96,0.96c0,0.52992 -0.42816,0.96 -0.96,0.96z"></path>
        </g>
        <g>
          <path d="M139.2,61.44h-3.84c-0.52992,0 -0.96,-0.43008 -0.96,-0.96c0,-0.52992 0.43008,-0.96 0.96,-0.96h3.84c0.52992,0 0.96,0.43008 0.96,0.96c0,0.52992 -0.43008,0.96 -0.96,0.96z"></path>
        </g>
      </g>
      <g>
        <g fill="#ffffff">
          <path d="M75.84,62.4c0,0 3.00864,0 6.72,0c3.71136,0 6.72,-3.00864 6.72,-6.72c0,-3.41952 -2.5632,-6.20928 -5.8656,-6.6336c0.05376,-0.34368 0.1056,-0.68736 0.1056,-1.0464c0,-3.71136 -3.00864,-6.72 -6.72,-6.72c-1.98144,0 -3.744,0.8736 -4.9728,2.2368c-0.73728,-3.47136 -3.81504,-6.0768 -7.5072,-6.0768c-4.24128,0 -7.68,3.43872 -7.68,7.68c0,0.36672 0.0576,0.71808 0.10752,1.07136c-0.82176,-0.66048 -1.85088,-1.07136 -2.98752,-1.07136c-2.35776,0 -4.3104,1.70304 -4.7136,3.9456c-0.34368,-0.05376 -0.68736,-0.1056 -1.0464,-0.1056c-3.71136,0 -6.72,3.00864 -6.72,6.72c0,3.71136 3.00864,6.72 6.72,6.72c3.71136,0 14.4,0 14.4,0v0.96h13.44z"></path>
        </g>
        <g fill="#333333">
          <path d="M79.2,53.76c-0.26496,0 -0.48,-0.21504 -0.48,-0.48c0,-2.34816 1.9104,-4.25856 4.25856,-4.25856c0.06528,0.01728 1.41504,-0.00192 2.38848,0.26112c0.25536,0.06912 0.40704,0.33216 0.33792,0.58752c-0.06912,0.25728 -0.33216,0.40896 -0.58752,0.33792c-0.85248,-0.2304 -2.112,-0.2304 -2.13696,-0.22656c-1.82016,0 -3.30048,1.48032 -3.30048,3.29856c0,0.26496 -0.21504,0.48 -0.48,0.48z"></path>
        </g>
        <g fill="#333333">
          <circle cx="34.5" cy="32.5" transform="scale(1.92,1.92)" r="0.5"></circle>
        </g>
        <g fill="#333333">
          <path d="M82.56,63.36h-6.72c-0.52992,0 -0.96,-0.43008 -0.96,-0.96c0,-0.52992 0.43008,-0.96 0.96,-0.96h6.72c3.17568,0 5.76,-2.58432 5.76,-5.76c0,-2.87232 -2.16,-5.31456 -5.02656,-5.68128c-0.25728,-0.03456 -0.4896,-0.16896 -0.64512,-0.37632c-0.15552,-0.20736 -0.2208,-0.46848 -0.18048,-0.72384c0.04416,-0.29568 0.09216,-0.59136 0.09216,-0.89856c0,-3.17568 -2.58432,-5.76 -5.76,-5.76c-1.632,0 -3.14496,0.6816 -4.26048,1.92c-0.24,0.26688 -0.61632,0.38016 -0.96,0.28416c-0.34944,-0.09408 -0.61632,-0.3744 -0.6912,-0.72768c-0.65472,-3.07968 -3.4176,-5.31648 -6.56832,-5.31648c-3.7056,0 -6.72,3.0144 -6.72,6.72c0,0.27456 0.04032,0.5376 0.07872,0.80256c0.05568,0.38976 -0.12096,0.84096 -0.46464,1.0368c-0.34368,0.19584 -0.76032,0.22656 -1.06752,-0.0192c-0.7008,-0.56256 -1.52448,-0.86016 -2.38656,-0.86016c-1.85472,0 -3.44064,1.32672 -3.76896,3.15648c-0.09216,0.51264 -0.56832,0.85632 -1.09248,0.7776c-0.29568,-0.04608 -0.59136,-0.09408 -0.89856,-0.09408c-3.17568,0 -5.76,2.58432 -5.76,5.76c0,3.17568 2.58432,5.76 5.76,5.76h14.4c0.52992,0 0.96,0.43008 0.96,0.96c0,0.52992 -0.43008,0.96 -0.96,0.96h-14.4c-4.23552,0 -7.68,-3.44448 -7.68,-7.68c0,-4.23552 3.44448,-7.68 7.68,-7.68c0.11328,0 0.22272,0.00384 0.33408,0.01152c0.79488,-2.27712 2.95104,-3.85152 5.42592,-3.85152c0.67008,0 1.32288,0.11712 1.94112,0.3456c0.3168,-4.47936 4.0608,-8.0256 8.61888,-8.0256c3.51552,0 6.65472,2.16384 7.97376,5.32608c1.3056,-0.95616 2.88384,-1.48608 4.50624,-1.48608c4.23552,0 7.68,3.44448 7.68,7.68c0,0.09216 -0.00192,0.1824 -0.00768,0.27264c3.34656,0.86016 5.76768,3.89184 5.76768,7.40736c0,4.23552 -3.44448,7.68 -7.68,7.68z"></path>
        </g>
        <g fill="#333333">
          <path d="M72,61.44c-0.30528,0 -1.61472,0 -1.92,0c-0.52992,0 -0.96,0.43008 -0.96,0.96c0,0.52992 0.43008,0.96 0.96,0.96c0.30528,0 1.61472,0 1.92,0c0.52992,0 0.96,-0.43008 0.96,-0.96c0,-0.52992 -0.43008,-0.96 -0.96,-0.96z"></path>
        </g>
      </g>
      <g>
        <g fill="#f1c40f">
          <path d="M93.26208,128.58048l1.9392,3.9264l4.33152,0.62976l-3.13344,3.05472l0.73728,4.31424l-3.87456,-2.03904l-3.87456,2.03904l0.74112,-4.31424l-3.13344,-3.05472l4.33152,-0.62976z"></path>
        </g>
        <g fill="#333333">
          <path d="M97.13856,141.26784c-0.12288,0 -0.24192,-0.0288 -0.3552,-0.0864l-3.51936,-1.85088l-3.51936,1.85088c-0.25728,0.13632 -0.5664,0.11328 -0.80448,-0.05568c-0.23232,-0.16896 -0.35136,-0.45888 -0.30336,-0.74688l0.67392,-3.92064l-2.84928,-2.7744c-0.20928,-0.20544 -0.28224,-0.50496 -0.19392,-0.78144c0.08832,-0.27648 0.3264,-0.47616 0.6144,-0.5184l3.93792,-0.57216l1.76256,-3.56544c0.25536,-0.5184 1.11168,-0.5184 1.36512,0l1.76256,3.56544l3.936,0.57216c0.288,0.04416 0.52416,0.24192 0.6144,0.5184c0.09024,0.27648 0.01536,0.57984 -0.19392,0.78144l-2.84736,2.7744l0.67392,3.92064c0.048,0.288 -0.0672,0.57792 -0.30336,0.74688c-0.13632,0.09216 -0.29376,0.14208 -0.4512,0.14208zM93.26208,137.70816c0.12288,0 0.24384,0.0288 0.3552,0.0864l2.50752,1.31712l-0.48,-2.79168c-0.04416,-0.24768 0.0384,-0.4992 0.2208,-0.67776l2.02752,-1.9776l-2.8032,-0.40704c-0.24576,-0.03648 -0.4608,-0.19392 -0.57216,-0.41664l-1.25376,-2.54016l-1.25376,2.54016c-0.11136,0.22464 -0.32448,0.38208 -0.57216,0.41664l-2.80512,0.40704l2.02944,1.9776c0.18048,0.17664 0.26112,0.42624 0.2208,0.67776l-0.48,2.79168l2.50752,-1.31712c0.10752,-0.05952 0.23232,-0.0864 0.35136,-0.0864z"></path>
        </g>
      </g>
      <g>
        <g fill="#f1c40f">
          <path d="M105.64224,49.89696l1.9392,3.9264l4.33152,0.62976l-3.13344,3.05664l0.73728,4.31424l-3.87456,-2.03904l-3.87456,2.03904l0.74112,-4.31424l-3.13344,-3.05664l4.33152,-0.62976z"></path>
        </g>
        <g fill="#333333">
          <path d="M109.51872,62.58624c-0.12288,0 -0.24192,-0.0288 -0.3552,-0.0864l-3.51936,-1.85088l-3.51936,1.85088c-0.25728,0.13632 -0.5664,0.11328 -0.80448,-0.05568c-0.23232,-0.16896 -0.35136,-0.45888 -0.30336,-0.74688l0.67392,-3.92064l-2.84928,-2.7744c-0.20928,-0.20544 -0.28224,-0.50496 -0.19392,-0.78144c0.09024,-0.27648 0.3264,-0.47616 0.6144,-0.5184l3.93792,-0.57216l1.76256,-3.56544c0.25536,-0.5184 1.11168,-0.5184 1.36512,0l1.76256,3.56544l3.936,0.57216c0.288,0.04416 0.52416,0.24192 0.6144,0.5184c0.09024,0.27648 0.01536,0.57984 -0.19392,0.78144l-2.84736,2.7744l0.67392,3.92064c0.048,0.288 -0.0672,0.57792 -0.30336,0.74688c-0.13632,0.09216 -0.29376,0.14208 -0.4512,0.14208zM105.64224,59.02464c0.12288,0 0.24384,0.0288 0.3552,0.0864l2.50752,1.31712l-0.48,-2.79168c-0.04416,-0.24768 0.0384,-0.4992 0.2208,-0.67776l2.02752,-1.9776l-2.8032,-0.40704c-0.24576,-0.03648 -0.4608,-0.19392 -0.57216,-0.41664l-1.25376,-2.54016l-1.25376,2.54016c-0.11136,0.22464 -0.32448,0.38208 -0.57216,0.41664l-2.80512,0.40704l2.02944,1.9776c0.18048,0.17664 0.26112,0.42624 0.2208,0.67776l-0.48,2.79168l2.50752,-1.31712c0.10752,-0.0576 0.23232,-0.0864 0.35136,-0.0864z"></path>
        </g>
      </g>
      <g>
        <g fill="#f1c40f">
          <path d="M50.97216,72.912l2.53056,5.13024l5.664,0.82176l-4.09728,3.9936l0.96768,5.64096l-5.06496,-2.66304l-5.06496,2.66304l0.96576,-5.64096l-4.09536,-3.9936l5.66208,-0.82176z"></path>
        </g>
        <g fill="#333333">
          <path d="M56.03712,89.25888c-0.12288,0 -0.24192,-0.0288 -0.3552,-0.0864l-4.71168,-2.47488l-4.70784,2.47488c-0.2592,0.13632 -0.56832,0.11328 -0.80448,-0.05568c-0.23232,-0.16896 -0.35136,-0.45888 -0.30336,-0.74688l0.89856,-5.2416l-3.8112,-3.71328c-0.20928,-0.20544 -0.28224,-0.50496 -0.19392,-0.78144c0.09024,-0.27456 0.3264,-0.47616 0.6144,-0.5184l5.26848,-0.76608l2.35392,-4.76928c0.25536,-0.5184 1.11168,-0.5184 1.36512,0l2.35584,4.76928l5.26656,0.76608c0.288,0.04416 0.52416,0.24192 0.6144,0.5184c0.09024,0.27648 0.01536,0.57984 -0.19392,0.78144l-3.80928,3.71328l0.89856,5.2416c0.048,0.288 -0.0672,0.57792 -0.30336,0.74688c-0.12672,0.09216 -0.28416,0.14208 -0.4416,0.14208zM50.97024,85.0752c0.12288,0 0.24192,0.0288 0.3552,0.0864l3.69792,1.94304l-0.70656,-4.11648c-0.04416,-0.24768 0.0384,-0.4992 0.2208,-0.67776l2.98944,-2.91648l-4.13184,-0.59712c-0.24576,-0.03648 -0.4608,-0.19392 -0.57216,-0.41664l-1.85088,-3.74592l-1.84896,3.74592c-0.11136,0.22464 -0.32448,0.38208 -0.57216,0.41664l-4.13568,0.59904l2.99328,2.91648c0.18048,0.17664 0.26112,0.42624 0.2208,0.67776l-0.70656,4.11648l3.696,-1.94304c0.10752,-0.05952 0.23232,-0.08832 0.35136,-0.08832z"></path>
        </g>
      </g>
      <g>
        <g>
          <g fill="#00d2df">
            <path d="M96.0192,109.43808c-0.2304,-0.3168 -0.58752,-0.52032 -0.9792,-0.55104l-15.5712,-1.28448l5.48352,-13.94304c0.14784,-0.3744 0.11904,-0.79488 -0.07872,-1.14816l-9.90144,-17.70432l80.64768,5.2704l-52.5984,39.0624z"></path>
          </g>
          <g fill="#333333">
            <path d="M77.35488,76.31232l74.52864,4.87104l-48.57024,36.06528l-6.20352,-8.59584c-0.4608,-0.63744 -1.17504,-1.04064 -1.9584,-1.10592l-13.77024,-1.13664l4.82112,-12.26112c0.29568,-0.7488 0.23808,-1.59168 -0.15552,-2.29632l-8.69184,-15.54048M72.59328,73.30752l11.1072,19.86048l-6.14592,15.62496l17.37408,1.43424l7.79904,10.80384l56.63232,-42.05376l-86.76672,-5.66976z"></path>
          </g>
        </g>
        <g fill="#00d2df">
          <path d="M79.70688,107.88288l11.00928,-6.92544l65.38368,-20.97984l-70.51584,12.28224z"></path>
        </g>
        <g fill="#333333">
          <path d="M79.02528,108.72384c-0.36288,-0.29376 -0.49536,-0.7872 -0.33024,-1.22304l5.87328,-15.62304c0.1344,-0.36096 0.44928,-0.62208 0.82944,-0.68736l70.51776,-12.28224c0.57024,-0.09984 1.10784,0.25728 1.24224,0.81024c0.1344,0.55488 -0.1824,1.11936 -0.72384,1.29216l-65.25696,20.93376l-10.89024,6.85632c-0.23616,0.14784 -0.51264,0.19584 -0.77568,0.14784c-0.17472,-0.03072 -0.3456,-0.10752 -0.48576,-0.22464zM86.37888,93.22176l-4.5216,12.02496l8.27712,-5.21088c0.07872,-0.048 0.16128,-0.08448 0.24768,-0.11328l50.43264,-16.18176z"></path>
        </g>
        <g fill="#333333">
          <path d="M79.51104,108.94848c0.2592,0.048 0.53376,0.00192 0.77568,-0.14784l10.89024,-6.85632l65.25504,-20.93568c0.54144,-0.1728 0.85824,-0.73536 0.72384,-1.29024c-0.13248,-0.55104 -0.66624,-0.91008 -1.23456,-0.81408l-71.28576,11.92512c-0.59136,0.09792 -0.99072,0.65856 -0.89088,1.24992c0.096,0.59136 0.65088,0.99264 1.24992,0.89088l56.51712,-9.456l-51.12768,16.40448c-0.0864,0.0288 -0.16896,0.06528 -0.24768,0.11328l-11.00736,6.92736c-0.50688,0.32064 -0.66048,0.99072 -0.33984,1.4976c0.16896,0.27072 0.43392,0.43968 0.72192,0.49152z"></path>
        </g>
        <g fill="#333333">
          <path d="M96.06912,110.99904c0.25536,0.048 0.52992,0.00192 0.768,-0.14592c0.5088,-0.31488 0.66624,-0.98304 0.35136,-1.49376l-5.55072,-8.97792c-0.31872,-0.50688 -0.98496,-0.66432 -1.49376,-0.35136c-0.5088,0.31488 -0.66624,0.98304 -0.35136,1.49376l5.55072,8.97792c0.16896,0.27264 0.43392,0.44544 0.72576,0.49728z"></path>
        </g>
        <g fill="#333333">
          <path d="M103.47264,89.6352c-1.0464,2.80704 -2.08896,5.616 -3.13536,8.42304c-0.24384,0.6528 -1.21728,0.17664 -0.97728,-0.47424c1.0464,-2.80704 2.08896,-5.616 3.13536,-8.42304c0.24576,-0.65088 1.22112,-0.17472 0.97728,0.47424z"></path>
        </g>
        <g fill="#333333">
          <path d="M109.18656,88.44672c-0.8928,2.61312 -1.7856,5.2224 -2.67456,7.83552c-0.22464,0.65856 -1.20192,0.18048 -0.97728,-0.47424c0.8928,-2.61312 1.7856,-5.2224 2.67456,-7.83552c0.22656,-0.65664 1.20192,-0.17856 0.97728,0.47424z"></path>
        </g>
        <g fill="#333333">
          <path d="M115.41504,87.31776c-0.91776,2.32896 -1.83552,4.65984 -2.75328,6.99072c-0.25728,0.64896 -1.23264,0.17472 -0.97728,-0.47424c0.91776,-2.32896 1.83552,-4.65984 2.75328,-6.99072c0.25536,-0.64704 1.23072,-0.17088 0.97728,0.47424z"></path>
        </g>
        <g fill="#333333">
          <path d="M121.98912,86.20416c-0.78912,1.90656 -1.51872,3.83808 -2.30784,5.74656c-0.26688,0.64512 -1.24416,0.17088 -0.97728,-0.47424c0.78912,-1.90656 1.51872,-3.83808 2.30784,-5.74656c0.26688,-0.6432 1.24416,-0.16896 0.97728,0.47424z"></path>
        </g>
        <g fill="#333333">
          <path d="M128.07936,85.1808c-0.62016,1.50144 -1.2384,3.00096 -1.85664,4.5024c-0.26688,0.64512 -1.24416,0.17088 -0.97728,-0.47424c0.62016,-1.50144 1.2384,-3.00096 1.85664,-4.5024c0.26496,-0.64704 1.24224,-0.1728 0.97728,0.47424z"></path>
        </g>
        <g fill="#333333">
          <path d="M135.10656,84.04224c-0.3936,1.10784 -0.7872,2.2176 -1.1808,3.32544c-0.23424,0.65664 -1.2096,0.17856 -0.97728,-0.47424c0.3936,-1.10784 0.7872,-2.2176 1.1808,-3.32544c0.23232,-0.65664 1.20768,-0.17856 0.97728,0.47424z"></path>
        </g>
        <g fill="#333333">
          <path d="M97.57632,90.46848c-1.12704,2.95104 -2.25216,5.90208 -3.3792,8.85312c-0.24768,0.65088 -1.22496,0.17664 -0.97728,-0.47424c1.12704,-2.95104 2.25216,-5.90208 3.3792,-8.85312c0.2496,-0.65088 1.22496,-0.17664 0.97728,0.47424z"></path>
        </g>
        <g fill="#333333">
          <path d="M91.33248,91.32672c-1.47072,3.95328 -2.94144,7.90464 -4.41408,11.85984c-0.24384,0.6528 -1.21728,0.17664 -0.97728,-0.47424c1.47072,-3.95328 2.94144,-7.90464 4.41408,-11.85984c0.24192,-0.6528 1.21728,-0.17664 0.97728,0.47424z"></path>
        </g>
      </g>
      <g fill="#333333">
        <g>
          <path d="M43.1808,116.96448c-0.23232,0 -0.46272,-0.08256 -0.64704,-0.25152c-0.39168,-0.35712 -0.42048,-0.96384 -0.06336,-1.35552c4.12224,-4.51968 9.11808,-4.90368 13.45344,-4.68864c0.52992,0.02688 0.93696,0.47616 0.912,1.00608c-0.02688,0.528 -0.48768,0.96768 -1.00608,0.91008c-5.59296,-0.28608 -9.04896,0.90048 -11.93856,4.06656c-0.19008,0.20736 -0.44928,0.31296 -0.7104,0.31296z"></path>
        </g>
        <g>
          <path d="M60.73536,112.944c-0.624,0 -1.2384,-0.03456 -1.8432,-0.10176c-0.52608,-0.0576 -0.90624,-0.53376 -0.84864,-1.06176c0.05952,-0.52416 0.54912,-0.9024 1.05984,-0.84672c1.62624,0.18432 3.33312,0.0864 5.08032,-0.2784c0.51264,-0.12096 1.0272,0.22464 1.13472,0.74304c0.10944,0.52032 -0.22464,1.0272 -0.74304,1.13664c-1.29984,0.27264 -2.58624,0.40896 -3.84,0.40896z"></path>
        </g>
        <g>
          <path d="M67.88352,111.4944c-0.38208,0 -0.74304,-0.22848 -0.8928,-0.6048c-0.19584,-0.49344 0.04608,-1.05216 0.53952,-1.24608c2.38464,-0.94464 3.93216,-2.04288 3.94752,-2.0544c0.432,-0.3072 1.03296,-0.2112 1.33824,0.2208c0.30912,0.43008 0.2112,1.02912 -0.21888,1.33824c-0.06912,0.048 -1.73952,1.24032 -4.36032,2.28096c-0.1152,0.04608 -0.23616,0.06528 -0.35328,0.06528z"></path>
        </g>
        <g>
          <path d="M46.01088,123.75744c-0.23616,0 -0.47232,-0.0864 -0.65664,-0.26112c-0.38592,-0.36096 -0.40512,-0.9696 -0.04224,-1.35744c4.2048,-4.47744 9.6,-4.176 14.81856,-3.88992c4.95744,0.27456 9.64608,0.53376 13.55136,-2.96064c0.3936,-0.3552 1.00032,-0.31872 1.35552,0.07296c0.35328,0.39552 0.32064,1.00224 -0.07488,1.35552c-4.49664,4.02816 -9.80352,3.73056 -14.9376,3.45024c-4.99776,-0.2784 -9.71904,-0.53952 -13.31328,3.28896c-0.19008,0.19968 -0.44352,0.30144 -0.7008,0.30144z"></path>
        </g>
        <g>
          <path d="M40.85568,108.28992c-0.23616,0 -0.47232,-0.0864 -0.65664,-0.26112c-0.38592,-0.36096 -0.40512,-0.9696 -0.04224,-1.35744c4.2048,-4.47552 9.6,-4.17792 14.81664,-3.888c4.96128,0.27456 9.64992,0.53184 13.55328,-2.96256c0.3936,-0.3552 1.00224,-0.31872 1.35552,0.07296c0.35328,0.39552 0.32064,1.00224 -0.07488,1.35552c-4.49664,4.02816 -9.80736,3.73056 -14.93952,3.45024c-4.99584,-0.27648 -9.71904,-0.5376 -13.31328,3.28896c-0.18816,0.2016 -0.4416,0.30144 -0.69888,0.30144z"></path>
        </g>
      </g>
      <g>
        <g fill="#ffffff">
          <path d="M130.56,144h-11.04c-4.7712,1.44 -8.64,-2.4288 -8.64,-7.2c0,-4.47936 3.42144,-8.11968 7.7856,-8.5536c-0.04224,-0.34752 -0.1056,-0.68736 -0.1056,-1.0464c0,-4.7712 3.8688,-8.64 8.64,-8.64c2.76096,0 5.18976,1.31712 6.77184,3.33312c0.2688,-5.06112 4.41984,-9.09312 9.54816,-9.09312c5.30112,0 9.6,4.29888 9.6,9.6c0,0.85632 -0.14784,1.6704 -0.35904,2.46144c1.23264,-1.49184 3.072,-2.46144 5.15904,-2.46144c3.41952,0 6.20928,2.5632 6.6336,5.8656c0.34752,-0.04224 0.68736,-0.1056 1.0464,-0.1056c4.7712,0 8.64,3.8688 8.64,8.64c0,4.7712 -3.8688,8.64 -8.64,7.2h-18.24h-11.04v1.92h-5.76z"></path>
        </g>
        <g fill="#333333">
          <path d="M143.04,111.36c5.82336,0 10.56,4.73664 10.56,10.56c0,0.03072 0,0.05952 0,0.09024c1.15584,-0.6816 2.4768,-1.05024 3.84,-1.05024c3.51552,0 6.54912,2.42112 7.40736,5.7696c0.09024,-0.00576 0.18048,-0.0096 0.27264,-0.0096c5.95008,0 10.65408,5.44128 9.39456,11.61024c-0.9216,4.51392 -5.16288,7.58976 -9.77088,7.58976h-28.18368c-0.52992,0 -0.96,-0.43008 -0.96,-0.96c0,-0.52992 0.43008,-0.96 0.96,-0.96h28.25856c3.6864,0 7.07904,-2.46144 7.81632,-6.07296c1.008,-4.9344 -2.7552,-9.28704 -7.51488,-9.28704c-0.22464,0 -0.4416,0.03264 -0.65856,0.06144l-0.27072,0.03648c-0.04032,0.00576 -0.07872,0.00768 -0.11904,0.00768c-0.47232,0 -0.88704,-0.3552 -0.9504,-0.83904c-0.36672,-2.86656 -2.80896,-5.02656 -5.68128,-5.02656c-1.6992,0 -3.30816,0.76992 -4.41792,2.112c-0.18816,0.22656 -0.46272,0.34944 -0.74112,0.34944c-0.14976,0 -0.29952,-0.03456 -0.43776,-0.10752c-0.40128,-0.20544 -0.60288,-0.66432 -0.48768,-1.10016c0.3072,-1.152 0.38784,-2.05248 0.28224,-2.97408c-0.4608,-4.08384 -3.76128,-7.50528 -7.85664,-7.84896c-4.89792,-0.4128 -9.072,3.31776 -9.32928,8.15232c-0.02112,0.39936 -0.288,0.74304 -0.67008,0.864c-0.096,0.03072 -0.19392,0.04608 -0.29184,0.04608c-0.288,0 -0.56832,-0.13248 -0.75264,-0.36864c-1.48224,-1.88352 -3.67296,-2.96448 -6.01728,-2.96448c-4.23552,0 -7.68,3.44448 -7.68,7.68c0,0.22464 0.03264,0.4416 0.06144,0.65856l0.03648,0.27072c0.03072,0.25728 -0.04224,0.51456 -0.20352,0.71616c-0.16128,0.2016 -0.39744,0.33024 -0.6528,0.3552c-4.51584,0.44928 -7.76064,4.66368 -6.72768,9.3408c0.78336,3.55776 4.17408,5.93856 7.81824,5.93856h11.42784c0.52992,0 0.96,0.43008 0.96,0.96c0,0.52992 -0.43008,0.96 -0.96,0.96h-11.40096c-4.73664,0 -9.03936,-3.27168 -9.8208,-7.94496c-0.88704,-5.30496 2.58048,-10.0224 7.54752,-11.0208c-0.00384,-0.0768 -0.00576,-0.15552 -0.00576,-0.23424c0,-5.29344 4.30656,-9.6 9.6,-9.6c2.25792,0 4.40256,0.79872 6.11136,2.23488c1.14816,-4.61568 5.30304,-7.99488 10.20864,-7.99488z"></path>
        </g>
        <g fill="#333333">
          <path d="M146.4,125.28c2.69376,0 5.00928,1.91808 5.59296,4.49472c0.70464,-0.42624 1.50912,-0.65472 2.32704,-0.65472c2.30784,0 4.22016,1.72224 4.51776,3.97056c0.38976,-0.0864 0.76032,-0.13056 1.1232,-0.13056c2.93568,0 5.39712,2.304 5.60256,5.24544c0.01728,0.26496 -0.18048,0.49344 -0.44544,0.51264c-0.01152,0 -0.02304,0 -0.03456,0c-0.2496,0 -0.4608,-0.19392 -0.47808,-0.44544c-0.17088,-2.44032 -2.20992,-4.35456 -4.64448,-4.35456c-0.43968,0 -0.9024,0.08064 -1.41696,0.24384c-0.04224,0.01344 -0.0864,0.0192 -0.12864,0.0192c-0.1056,0 -0.2112,-0.0384 -0.29952,-0.10368c-0.12288,-0.09024 -0.19584,-0.24768 -0.19584,-0.40128c0,-1.98528 -1.61472,-3.6 -3.6,-3.6c-0.85824,0 -1.6992,0.32256 -2.36352,0.90816c-0.09024,0.07872 -0.20352,0.12096 -0.3168,0.12096c-0.06144,0 -0.12096,-0.01152 -0.17856,-0.03648c-0.16896,-0.0672 -0.28416,-0.22464 -0.2976,-0.40704c-0.19584,-2.48064 -2.28672,-4.4256 -4.75968,-4.4256c-0.39936,0 -0.816,0.06528 -1.30944,0.20544c-0.04416,0.01344 -0.09024,0.0192 -0.1344,0.0192c-0.20928,0 -0.39744,-0.14016 -0.45888,-0.34944c-0.07296,-0.25536 0.07488,-0.52032 0.33024,-0.59328c0.576,-0.16128 1.07712,-0.23808 1.56864,-0.23808z"></path>
        </g>
        <g fill="#333333">
          <path d="M119.74464,128.16c2.54592,0 4.81536,1.72224 5.51808,4.18944c0.07296,0.25536 -0.07488,0.52032 -0.33024,0.59328c-0.04416,0.01344 -0.08832,0.0192 -0.13056,0.0192c-0.20928,0 -0.40128,-0.13824 -0.4608,-0.34944c-0.5856,-2.05632 -2.47488,-3.49056 -4.59456,-3.49056c-0.22464,0 -0.4416,0.02688 -0.65664,0.05568c-0.02304,0.00384 -0.04416,0.00576 -0.0672,0.00576c-0.23232,0 -0.43968,-0.17664 -0.47232,-0.41664c-0.03648,-0.26304 0.14784,-0.50496 0.41088,-0.53952c0.25536,-0.03648 0.51648,-0.0672 0.78336,-0.0672z"></path>
        </g>
      </g>
    </g>
  </g>
</svg>