<?xml version="1.0"?>
<svg xmlns="http://www.w3.org/2000/svg" xmlns:xlink="http://www.w3.org/1999/xlink" version="1.1" viewBox="0 0 192 192" width="32px" height="32px"><g fill="none" fill-rule="nonzero" stroke="none" stroke-width="1" stroke-linecap="butt" stroke-linejoin="miter" stroke-miterlimit="10" stroke-dasharray="" stroke-dashoffset="0" font-family="none" font-weight="none" font-size="none" text-anchor="none" style="mix-blend-mode: normal"><path d="M0,192v-192h192v192z" fill="none"/><path d="M58.56,192c-32.34179,0 -58.56,-26.21821 -58.56,-58.56v-74.88c0,-32.34179 26.21821,-58.56 58.56,-58.56h74.88c32.34179,0 58.56,26.21821 58.56,58.56v74.88c0,32.34179 -26.21821,58.56 -58.56,58.56zM125.76,184.32c32.34179,0 58.56,-26.21821 58.56,-58.56v-59.52c0,-32.34179 -26.21821,-58.56 -58.56,-58.56h-59.52c-32.34179,0 -58.56,26.21821 -58.56,58.56v59.52c0,32.34179 26.21821,58.56 58.56,58.56z" fill="#c02bb0"/><g fill="#c02bb0"><g id="surface1"><path d="M141.62856,39.57018c-1.56682,0.07288 -3.04254,0.52834 -4.3543,1.03847h-0.01822c-1.32998,0.52834 -7.6519,3.18829 -17.25322,7.21465c-9.60132,4.04458 -22.06299,9.2916 -34.43357,14.50218c-24.70472,10.40295 -48.9904,20.64192 -48.9904,20.64192l0.2915,-0.10931c0,0 -1.67613,0.54656 -3.42514,1.74901c-0.89272,0.583 -1.87654,1.38463 -2.73282,2.64173c-0.85629,1.2571 -1.5486,3.18829 -1.29354,5.17414c0.41903,3.37048 2.60529,5.39277 4.17211,6.50412c1.58504,1.12957 3.0972,1.65791 3.0972,1.65791h0.03644l22.77353,7.67012c1.02025,3.27939 6.94137,22.73709 8.36243,27.21892c0.83807,2.67817 1.65791,4.3543 2.67817,5.62961c0.49191,0.65588 1.07491,1.20244 1.76722,1.6397c0.27328,0.16397 0.56478,0.2915 0.85629,0.40081c0.09109,0.05466 0.18219,0.07288 0.2915,0.09109l-0.23684,-0.05465c0.07288,0.01822 0.12753,0.07288 0.18219,0.09109c0.18219,0.05466 0.30972,0.07288 0.54657,0.10931c3.60732,1.09313 6.50412,-1.14778 6.50412,-1.14778l0.16397,-0.12753l13.44549,-12.24305l22.53668,17.28966l0.51013,0.21863c4.70046,2.05873 9.45557,0.91094 11.96976,-1.11135c2.53242,-2.04051 3.51624,-4.6458 3.51624,-4.6458l0.16397,-0.41903l17.41719,-89.21756c0.49191,-2.20448 0.61944,-4.2632 0.07288,-6.26727c-0.54657,-2.00407 -1.94941,-3.88061 -3.64376,-4.88264c-1.71257,-1.02025 -3.40692,-1.32997 -4.97374,-1.2571zM141.15487,49.13505c-0.01822,0.2915 0.03644,0.25507 -0.09109,0.81985v0.05466l-17.25322,88.2884c-0.07288,0.12753 -0.20041,0.40081 -0.54656,0.6741c-0.36438,0.2915 -0.65588,0.47369 -2.16804,-0.12753l-27.56507,-21.13383l-16.652,15.17628l3.49801,-22.33627c0,0 43.1786,-40.24537 45.03692,-41.97616c1.85832,-1.73079 1.23888,-2.09517 1.23888,-2.09517c0.12753,-2.11338 -2.8057,-0.61944 -2.8057,-0.61944l-56.78806,35.18054l-0.01822,-0.09109l-27.21891,-9.16407v-0.01822c-0.01822,0 -0.05466,-0.01822 -0.07288,-0.01822c0.01822,0 0.14575,-0.05466 0.14575,-0.05466l0.14575,-0.07288l0.14575,-0.05466c0,0 24.3039,-10.23897 49.00862,-20.64192c12.37058,-5.21058 24.83225,-10.4576 34.41535,-14.50218c9.5831,-4.02636 16.67022,-6.97781 17.07104,-7.14178c0.38259,-0.14575 0.2004,-0.14575 0.47369,-0.14575z"/></g></g><path d="M58.56,192c-32.34179,0 -58.56,-26.21821 -58.56,-58.56v-74.88c0,-32.34179 26.21821,-58.56 58.56,-58.56h74.88c32.34179,0 58.56,26.21821 58.56,58.56v74.88c0,32.34179 -26.21821,58.56 -58.56,58.56z" fill="none"/><path d="M66.24,184.32c-32.34179,0 -58.56,-26.21821 -58.56,-58.56v-59.52c0,-32.34179 26.21821,-58.56 58.56,-58.56h59.52c32.34179,0 58.56,26.21821 58.56,58.56v59.52c0,32.34179 -26.21821,58.56 -58.56,58.56z" fill="none"/><path d="M58.56,192c-32.34179,0 -58.56,-26.21821 -58.56,-58.56v-74.88c0,-32.34179 26.21821,-58.56 58.56,-58.56h74.88c32.34179,0 58.56,26.21821 58.56,58.56v74.88c0,32.34179 -26.21821,58.56 -58.56,58.56z" fill="none"/><path d="M66.24,184.32c-32.34179,0 -58.56,-26.21821 -58.56,-58.56v-59.52c0,-32.34179 26.21821,-58.56 58.56,-58.56h59.52c32.34179,0 58.56,26.21821 58.56,58.56v59.52c0,32.34179 -26.21821,58.56 -58.56,58.56z" fill="none"/></g></svg>
